Coordinates
version=1
nRows=10
nColumns=63
inDegrees=yes

Units are S.I. units (second, meters, Newtons, ...)
If the header above contains a line with 'inDegrees', this indicates whether rotational values are in degrees (yes) or radians (no).

endheader
time	pelvis_tilt	pelvis_list	pelvis_rotation	pelvis_tx	pelvis_ty	pelvis_tz	hip_flexion_r	hip_adduction_r	hip_rotation_r	knee_angle_r	knee_angle_r_beta	ankle_angle_r	subtalar_angle_r	mtp_angle_r	hip_flexion_l	hip_adduction_l	hip_rotation_l	knee_angle_l	knee_angle_l_beta	ankle_angle_l	subtalar_angle_l	mtp_angle_l	L5_S1_Flex_Ext	L5_S1_Lat_Bending	L5_S1_axial_rotation	L4_L5_Flex_Ext	L4_L5_Lat_Bending	L4_L5_axial_rotation	L3_L4_Flex_Ext	L3_L4_Lat_Bending	L3_L4_axial_rotation	L2_L3_Flex_Ext	L2_L3_Lat_Bending	L2_L3_axial_rotation	L1_L2_Flex_Ext	L1_L2_Lat_Bending	L1_L2_axial_rotation	L1_T12_Flex_Ext	L1_T12_Lat_Bending	L1_T12_axial_rotation	Abs_r3	Abs_r2	Abs_r1	Abs_t1	Abs_t2	neck_flexion	neck_bending	neck_rotation	arm_flex_r	arm_add_r	arm_rot_r	elbow_flex_r	pro_sup_r	wrist_flex_r	wrist_dev_r	arm_flex_l	arm_add_l	arm_rot_l	elbow_flex_l	pro_sup_l	wrist_flex_l	wrist_dev_l
      4.76666667	      3.16636425	     -2.73995271	    168.99354506	      2.89957615	      0.89390059	      0.17024026	      1.67331759	      1.47635363	      9.06477263	      8.22374493	      0.14353143	     18.29727091	    -15.77343795	      0.00000000	      2.60736278	     -2.39426310	    -27.22204782	     15.08072942	      0.26320838	     20.94759724	      9.41610085	      0.00000000	     -0.00227733	     -0.18838442	      0.85567164	     -0.00422922	     -0.25055128	      0.90915112	     -0.00374142	     -0.45803787	      0.90915112	     -0.00260276	     -0.45803787	      0.74871269	     -0.00211473	     -0.38415350	      0.69523321	     -0.00130126	     -0.29180746	      0.64175373	     -0.01626672	     -2.13104221	      4.75898897	      0.00000000	      0.00000000	     -0.00000000	      0.00000000	      0.00000000	     -6.63319785	     -2.64995567	    -11.30289515	     30.85684994	     42.67653392	      0.00000000	      5.00000014	     -2.84159962	     -5.05142694	     11.05636830	     27.22632572	     45.98915504	      0.00000000	      5.00000014
      4.80000000	      3.16415740	     -2.71221671	    168.98896671	      2.89956094	      0.89392376	      0.17026680	      1.64425251	      1.49788446	      9.08121935	      8.18307145	      0.14282154	     18.25223828	    -15.79160451	      0.00000000	      2.62031964	     -2.41060793	    -27.05953931	     15.10461652	      0.26362529	     20.89926529	      9.18304668	      0.00000000	     -0.00290478	     -0.18510645	      0.86213108	     -0.00539446	     -0.24619157	      0.91601427	     -0.00477226	     -0.45006781	      0.91601427	     -0.00331987	     -0.45006781	      0.75436469	     -0.00269738	     -0.37746907	      0.70048150	     -0.00165979	     -0.28672989	      0.64659831	     -0.02074854	     -2.09396115	      4.79491441	      0.00000000	      0.00000000	     -0.00000000	      0.00000000	      0.00000000	     -6.64053503	     -2.61656177	    -11.52610278	     30.84451269	     42.84589441	      0.00000000	      5.00000014	     -2.82800431	     -5.01021867	     10.98011584	     27.20333206	     45.90064408	      0.00000000	      5.00000014
      4.83333333	      3.16852918	     -2.70924156	    168.99368545	      2.89958401	      0.89391367	      0.17027905	      1.65052335	      1.49948876	      9.02520872	      8.18123735	      0.14278953	     18.28465040	    -15.72897064	      0.00000000	      2.63111055	     -2.44103462	    -27.20640944	     15.13660419	      0.26418358	     20.93468706	      9.42486271	      0.00000000	     -0.00285834	     -0.18434005	      0.86265647	     -0.00530822	     -0.24517226	      0.91657250	     -0.00469596	     -0.44820439	      0.91657250	     -0.00326679	     -0.44820439	      0.75482441	     -0.00265425	     -0.37590623	      0.70090839	     -0.00163325	     -0.28554273	      0.64699236	     -0.02041682	     -2.08529149	      4.79783651	      0.00000000	      0.00000000	     -0.00000000	      0.00000000	      0.00000000	     -6.65329797	     -2.63044087	    -11.47359069	     30.86756379	     42.72147957	      0.00000000	      5.00000014	     -2.79263698	     -5.03647391	     11.15435575	     27.16988986	     45.96074616	      0.00000000	      5.00000014
      4.86666667	      3.16246379	     -2.72829484	    168.96992012	      2.89958679	      0.89392019	      0.17021513	      1.66833013	      1.48334864	      9.05170279	      8.22267714	      0.14351279	     18.30101167	    -15.72674218	      0.00000000	      2.59471337	     -2.41476033	    -27.31111727	     15.07660220	      0.26313635	     20.92513383	      9.51803825	      0.00000000	     -0.00318101	     -0.18727489	      0.86429405	     -0.00590745	     -0.24907561	      0.91831242	     -0.00522607	     -0.45534018	      0.91831242	     -0.00363557	     -0.45534018	      0.75625729	     -0.00295388	     -0.38189096	      0.70223891	     -0.00181763	     -0.29008881	      0.64822053	     -0.02272161	     -2.11849105	      4.80694419	      0.00000000	      0.00000000	     -0.00000000	      0.00000000	      0.00000000	     -6.63135727	     -2.62277160	    -11.42395855	     30.83425741	     42.58960077	      0.00000000	      5.00000014	     -2.82988017	     -5.04366028	     11.05139763	     27.23010262	     45.96505337	      0.00000000	      5.00000014
      4.90000000	      3.16818927	     -2.71776593	    169.01177100	      2.89957736	      0.89393041	      0.17027441	      1.66120326	      1.49270604	      9.01477741	      8.20417881	      0.14318993	     18.26766401	    -15.74804972	      0.00000000	      2.62347049	     -2.42310707	    -27.17883252	     15.10851105	      0.26369326	     20.91303259	      9.34778460	      0.00000000	     -0.00258609	     -0.18611924	      0.85685845	     -0.00480263	     -0.24753859	      0.91041211	     -0.00424869	     -0.45253032	      0.91041211	     -0.00295564	     -0.45253032	      0.74975115	     -0.00240144	     -0.37953435	      0.69619749	     -0.00147769	     -0.28829870	      0.64264384	     -0.01847219	     -2.10541805	      4.76558966	      0.00000000	      0.00000000	     -0.00000000	      0.00000000	      0.00000000	     -6.63483221	     -2.60909006	    -11.51573820	     30.84879670	     42.62276312	      0.00000000	      5.00000014	     -2.81495836	     -5.03322637	     11.07013198	     27.17928484	     45.94033749	      0.00000000	      5.00000014
      4.93333333	      3.15966796	     -2.73372592	    168.98509302	      2.89955124	      0.89391378	      0.17023734	      1.65593081	      1.47601333	      9.06337692	      8.21129212	      0.14331408	     18.30602133	    -15.74545585	      0.00000000	      2.59163996	     -2.39981636	    -27.23682491	     15.06706924	      0.26296997	     20.92225324	      9.44773602	      0.00000000	     -0.00282185	     -0.18772234	      0.86280934	     -0.00524046	     -0.24967072	      0.91673492	     -0.00463602	     -0.45642811	      0.91673492	     -0.00322510	     -0.45642811	      0.75495817	     -0.00262037	     -0.38280340	      0.70103259	     -0.00161241	     -0.29078191	      0.64710700	     -0.02015622	     -2.12355269	      4.79868670	      0.00000000	      0.00000000	     -0.00000000	      0.00000000	      0.00000000	     -6.65279809	     -2.61168171	    -11.45301306	     30.86960668	     42.46858300	      0.00000000	      5.00000014	     -2.81756514	     -5.06788367	     11.18373436	     27.21281372	     45.99848491	      0.00000000	      5.00000014
      4.96666667	      3.15879390	     -2.72499435	    168.98832345	      2.89954481	      0.89393618	      0.17023591	      1.62972379	      1.47812963	      8.95454490	      8.15777907	      0.14238010	     18.32030131	    -15.58497537	      0.00000000	      2.59018125	     -2.41323057	    -27.26808355	     15.07288744	      0.26307151	     20.91219094	      9.47854375	      0.00000000	     -0.00301452	     -0.18689318	      0.86198688	     -0.00559826	     -0.24856793	      0.91586106	     -0.00495255	     -0.45441208	      0.91586106	     -0.00344529	     -0.45441208	      0.75423852	     -0.00279928	     -0.38111257	      0.70036434	     -0.00172249	     -0.28949754	      0.64649016	     -0.02153239	     -2.11417304	      4.79411244	      0.00000000	      0.00000000	     -0.00000000	      0.00000000	      0.00000000	     -6.65694008	     -2.61749916	    -11.42662967	     30.87615154	     42.33280381	      0.00000000	      5.00000014	     -2.82872992	     -5.02771760	     11.00034306	     27.20667239	     46.02480873	      0.00000000	      5.00000014
      5.00000000	      3.16486300	     -2.70759481	    168.97796006	      2.89956812	      0.89392707	      0.17026153	      1.63701216	      1.49577692	      8.98443710	      8.16092538	      0.14243502	     18.29632571	    -15.63230542	      0.00000000	      2.62077698	     -2.42375500	    -27.13829928	     15.11712357	      0.26384358	     20.91101333	      9.25271903	      0.00000000	     -0.00315326	     -0.18445566	      0.86433704	     -0.00585592	     -0.24532602	      0.91835810	     -0.00518050	     -0.44848548	      0.91835810	     -0.00360386	     -0.44848548	      0.75629491	     -0.00292812	     -0.37614197	      0.70227384	     -0.00180177	     -0.28572181	      0.64825278	     -0.02252344	     -2.08659927	      4.80718331	      0.00000000	      0.00000000	     -0.00000000	      0.00000000	      0.00000000	     -6.63867274	     -2.63211118	    -11.42059250	     30.84213739	     42.40282223	      0.00000000	      5.00000014	     -2.81350074	     -5.01402456	     11.02872172	     27.17845681	     45.99634637	      0.00000000	      5.00000014
      5.03333333	      3.15960747	     -2.73033643	    168.97125821	      2.89956563	      0.89392921	      0.17022332	      1.65919822	      1.47989466	      9.05234751	      8.21430048	      0.14336659	     18.29895178	    -15.72386565	      0.00000000	      2.59245759	     -2.40787644	    -27.27772713	     15.07608288	      0.26312728	     20.91842347	      9.47394453	      0.00000000	     -0.00306836	     -0.18744010	      0.86502488	     -0.00569826	     -0.24929534	      0.91908893	     -0.00504102	     -0.45574187	      0.91908893	     -0.00350683	     -0.45574187	      0.75689677	     -0.00284928	     -0.38222786	      0.70283271	     -0.00175326	     -0.29034472	      0.64876866	     -0.02191702	     -2.12035993	      4.81100887	      0.00000000	      0.00000000	     -0.00000000	      0.00000000	      0.00000000	     -6.63721964	     -2.61684917	    -11.43912787	     30.83710443	     42.46678166	      0.00000000	      5.00000014	     -2.80933188	     -5.06685499	     11.21021496	     27.19667345	     45.95247051	      0.00000000	      5.00000014
      5.06666667	      3.16667992	     -2.71742544	    168.98847819	      2.89958880	      0.89393126	      0.17026330	      1.65299806	      1.49119945	      9.06560369	      8.18758640	      0.14290034	     18.26056729	    -15.76587776	      0.00000000	      2.62320217	     -2.41079943	    -27.09440250	     15.10548732	      0.26364049	     20.89126786	      9.22665509	      0.00000000	     -0.00296484	     -0.18556098	      0.86322717	     -0.00550600	     -0.24679611	      0.91717887	     -0.00487093	     -0.45117297	      0.91717887	     -0.00338851	     -0.45117297	      0.75532378	     -0.00275315	     -0.37839595	      0.70137208	     -0.00169411	     -0.28743396	      0.64742038	     -0.02117754	     -2.09910294	      4.80101058	      0.00000000	      0.00000000	     -0.00000000	      0.00000000	      0.00000000	     -6.64799166	     -2.62377256	    -11.43794200	     30.86050689	     42.40633147	      0.00000000	      5.00000014	     -2.81052127	     -5.02405149	     11.04984997	     27.18659413	     45.96118951	      0.00000000	      5.00000014
